<svg width="187" height="436" viewBox="0 0 187 436" fill="none" xmlns="http://www.w3.org/2000/svg">
<path d="M23.4048 122.571L27.9603 97.6738L56.7947 86.3166C56.7947 86.3166 58.1954 78.5812 59.6088 78.2405C61.0221 77.8998 62.4102 74.7198 62.4102 74.7198L61.7161 68.3471C61.7161 68.3471 64.3535 58.2519 77.6161 66.1136C77.6161 66.1136 73.6033 68.7888 74.2973 69.8993C74.9913 71.0098 73.5275 74.5431 75.2816 74.5431C77.0356 74.5431 80.5816 76.7767 82.3735 78.5812C83.6276 79.9286 84.7358 81.4048 85.6796 82.9852L100.608 83.8433C102.138 83.8561 103.661 84.0639 105.138 84.4616C105.391 77.1679 104.495 71.6029 102.728 67.2745C96.3049 51.6522 84.5944 46.0746 82.9161 38.2508C81.2378 30.427 82.0832 29.6068 82.0832 29.6068C83.7898 27.8716 85.0392 25.7403 85.7197 23.4037C86.4002 21.067 86.4905 18.5981 85.9825 16.218C84.3168 7.85156 77.8937 1.98372 54.7378 0.873242C31.5819 -0.237232 34.9386 15.6501 34.9386 15.6501L35.2162 16.7606C35.2162 16.7606 20.4267 21.8082 23.2281 40.4717C26.0296 59.1353 34.1057 67.2493 33.8281 73.1045C33.5505 78.9597 24.8938 81.1933 12.6155 94.5569C0.337223 107.92 -2.16134 128.023 2.86103 141.134C5.38484 147.582 10.3189 152.958 16.5148 156.971L23.4048 122.571Z" fill="#0C2626"/>
<path d="M42.7371 125.032V130.66L32.0488 163.684C38.7276 165.451 45.7319 165.598 52.479 164.113C56.2876 163.12 59.9279 161.568 63.2809 159.507L42.7371 125.032Z" fill="#0C2626"/>
<path d="M73.4644 69.6973L74.7263 75.3759C74.7263 75.3759 78.5121 71.5902 85.9068 83.0861C85.9068 83.0861 101.277 82.7202 105.466 84.8149C105.466 84.8149 106.337 85.0673 109.176 88.0833C112.016 91.0992 122.691 100.702 122.691 100.702C122.691 100.702 136.395 113.422 137.758 114.407C139.121 115.391 144.232 120.274 148.055 121.978L158.302 98.6454L162.87 87.099L165.394 77.5968H166.202L166.378 69.9371L165.76 60.8009C165.861 60.3363 166.073 59.9032 166.378 59.539C167.436 58.0727 168.25 56.4448 168.789 54.7186C168.789 53.8605 167.918 48.7876 167.918 48.7876C167.918 48.7876 167.489 47.5257 168.423 47.3743C169.356 47.2229 172.801 48.4217 173.23 50.8319L174.492 50.4029C175.537 47.906 176.84 45.525 178.379 43.2984C180.423 40.6484 182.518 38.9826 183.818 39.8407C184.174 40.0867 184.432 40.4521 184.543 40.8709C184.654 41.2897 184.611 41.7344 184.423 42.1248L180.36 49.5952C180.36 49.5952 178.568 52.0055 180.789 52.8636C180.789 52.8636 185.597 55.9552 185.913 58.6683C186.228 61.3814 184.487 63.7159 182.947 65.7097C181.408 67.7035 178.694 72.0192 178.694 72.0192L175.54 74.8081L174.278 79.6159L175.767 81.4709L173.546 91.0992L171.943 98.3173L171.136 102.696L166.088 119.984L161.04 135.051C161.04 135.051 158.441 143.683 152.144 143.443C145.847 143.203 138.945 139.796 136.711 138.686C134.477 137.575 116.066 127.959 116.066 127.959L112.281 126.167C112.786 127.891 113.003 129.686 112.924 131.48C112.861 134.811 109.277 142.156 108.23 143.821L107.612 156.844C107.367 159.104 107.41 161.385 107.738 163.633C108.293 167.028 111.132 186.234 111.751 188.632C111.751 188.632 105.618 194.184 87.3454 196.821C69.073 199.459 60.5173 195.181 60.5173 195.181L52.3781 190.398L62.4102 170.574C62.4102 170.574 64.934 164.681 64.6816 163.129C64.4292 161.576 60.1135 154.888 60.1135 154.888L44.2766 126.697L43.5321 126.95L41.0714 135.177L32.175 163.078L20.4646 197.907C20.4646 197.907 17.2593 206.74 15.9343 209.352L12.237 220.621C12.4423 222.634 12.9397 224.606 13.7134 226.476L4.41316 220.457L6.06625 211.623L8.12316 198.449L10.647 184.127L12.8679 172.277L16.4139 156.478L17.6758 152.112L20.1996 139.771L24.6415 117.385L28.4272 98.2163L54.9271 87.6795L56.5802 86.4176C56.9478 83.978 57.8436 81.6481 59.2049 79.5907C60.1498 78.237 61.2749 77.0186 62.549 75.969C62.549 75.969 62.4228 74.3159 62.3345 72.7511C62.2461 71.1864 61.8423 68.3092 61.8423 68.3092C61.8423 68.3092 70.0321 71.83 73.4644 69.6973Z" fill="#ECF1F1"/>
<path d="M37.9671 18.9815C37.9671 18.9815 42.8759 8.11652 52.6935 8.11652C62.5111 8.11652 82.8404 27.3984 82.8404 27.3984" stroke="#ECF1F1" stroke-width="0.208121" stroke-miterlimit="10" stroke-linecap="round"/>
<path d="M42.1693 20.6977C42.1693 20.6977 48.1254 14.3882 55.495 16.8363C62.8645 19.2844 63.9118 28.0546 63.9118 28.0546" stroke="#ECF1F1" stroke-width="0.208121" stroke-miterlimit="10" stroke-linecap="round"/>
<path d="M37.2605 21.7829C37.2605 21.7829 28.5029 26.6917 27.7962 35.8152C27.0895 44.9388 40.0619 55.7911 41.8159 68.0695C43.57 80.3478 34.4591 83.1366 19.7327 93.3075C5.00626 103.478 7.46697 126.256 10.6217 131.165" stroke="#ECF1F1" stroke-width="0.208121" stroke-miterlimit="10" stroke-linecap="round"/>
<path d="M12.3758 133.979C12.3758 133.979 14.4705 138.534 17.6253 139.935" stroke="#ECF1F1" stroke-width="0.208121" stroke-miterlimit="10" stroke-linecap="round"/>
<path d="M38.3205 45.6202C37.9058 46.5107 37.7197 47.4906 37.7792 48.4711C37.8387 49.4517 38.1419 50.4019 38.6612 51.2357C40.4152 54.3905 53.804 70.1642 52.6935 77.5337C51.5831 84.9032 44.63 89.4461 44.63 89.4461" stroke="#ECF1F1" stroke-width="0.208121" stroke-miterlimit="10" stroke-linecap="round"/>
<path d="M44.9707 21.7829C44.9707 21.7829 36.9071 25.291 37.2605 33.3545C37.6138 41.4181 39.3678 43.5255 39.3678 43.5255" stroke="#ECF1F1" stroke-width="0.208121" stroke-miterlimit="10" stroke-linecap="round"/>
<path d="M82.8404 48.4595C85.3458 54.1316 88.7837 59.3438 93.0113 63.88C99.3208 70.1895 100.015 79.313 100.015 79.313" stroke="#ECF1F1" stroke-width="0.208121" stroke-miterlimit="10" stroke-linecap="round"/>
<path d="M90.1972 68.4102C90.1972 68.4102 93.352 75.7797 93.352 80.3351" stroke="#ECF1F1" stroke-width="0.208121" stroke-miterlimit="10" stroke-linecap="round"/>
<path d="M72.7452 70.3662L62.8392 79.2878C62.8392 79.2878 61.7792 81.9883 59.7854 86.3166C57.7916 90.6449 58.1197 98.9356 58.1197 98.9356L64.2273 111.088C64.2273 111.088 52.479 97.6106 51.8102 95.9449C51.1414 94.2792 38.8505 97.2825 36.5286 98.2794C34.2067 99.2763 31.2033 101.27 31.8721 104.261C32.541 107.252 35.5317 111.227 34.1941 111.895C32.8564 112.564 29.2095 110.898 29.2095 112.892C29.2095 114.886 33.5379 122.533 31.5441 125.183C29.5503 127.833 16.9186 170.713 16.9186 170.713C16.9186 170.713 24.8938 164.062 22.9 166.725C20.9062 169.388 11.2779 190.979 11.2779 190.979L7.6184 203.598L16.2624 158.75L23.5688 120.893L27.9603 97.6737C32.2003 96.2604 56.7947 86.3166 56.7947 86.3166C56.7947 86.3166 58.7381 78.1395 62.4102 74.7197L61.7161 68.3471C61.7161 68.3471 68.4168 70.6943 72.7452 70.3662Z" fill="#A96EA6"/>
<path opacity="0.5" d="M72.7452 70.3662L62.8392 79.2878C62.8392 79.2878 61.7792 81.9883 59.7854 86.3166C57.7916 90.6449 58.1197 98.9356 58.1197 98.9356L64.2273 111.088C64.2273 111.088 52.479 97.6106 51.8102 95.9449C51.1414 94.2792 38.8505 97.2825 36.5286 98.2794C34.2067 99.2763 31.2033 101.27 31.8721 104.261C32.541 107.252 35.5317 111.227 34.1941 111.895C32.8564 112.564 29.2095 110.898 29.2095 112.892C29.2095 114.886 33.5379 122.533 31.5441 125.183C29.5503 127.833 16.9186 170.713 16.9186 170.713C16.9186 170.713 24.8938 164.062 22.9 166.725C20.9062 169.388 11.2779 190.979 11.2779 190.979L7.6184 203.598L16.2624 158.75L23.5688 120.893L27.9603 97.6737C32.2003 96.2604 56.7947 86.3166 56.7947 86.3166C56.7947 86.3166 57.3247 78.7452 62.4228 76.0952L61.7161 68.3471C61.7161 68.3471 68.4168 70.6943 72.7452 70.3662Z" fill="#ECF1F1"/>
<path d="M109.618 115.214C109.618 115.214 115.599 105.258 116.268 107.58C116.937 109.902 114.602 117.864 114.602 117.864C114.602 117.864 120.912 115.542 120.256 117.536C119.6 119.53 118.262 120.527 118.59 121.524C118.918 122.521 140.522 133.815 143.185 135.14C145.847 136.465 152.157 128.83 155.147 131.152C158.138 133.474 155.147 141.437 149.166 141.449C143.185 141.462 125.909 133.878 125.909 133.878L112.306 125.966" fill="#A96EA6"/>
<path opacity="0.5" d="M109.618 115.214C109.618 115.214 115.599 105.258 116.268 107.58C116.937 109.902 114.602 117.864 114.602 117.864C114.602 117.864 120.912 115.542 120.256 117.536C119.6 119.53 118.262 120.527 118.59 121.524C118.918 122.521 140.522 133.815 143.185 135.14C145.847 136.465 152.157 128.83 155.147 131.152C158.138 133.474 155.147 141.437 149.166 141.449C143.185 141.462 125.909 133.878 125.909 133.878L112.356 125.991" fill="#ECF1F1"/>
<path d="M73.7421 155.418C73.7421 155.418 112.583 134.824 106.274 142.459C99.9644 150.093 79.0547 158.75 73.7421 155.418Z" fill="#A96EA6"/>
<path opacity="0.5" d="M73.7421 155.418C73.7421 155.418 112.583 134.824 106.274 142.459C99.9644 150.093 79.0547 158.75 73.7421 155.418Z" fill="#ECF1F1"/>
<path d="M61.7161 68.4102C61.7161 68.4102 61.9938 73.7101 62.8392 79.2877C63.6847 84.8654 63.3945 84.8654 68.6945 91.5534C73.9944 98.2415 79.572 103.832 80.4049 102.721" stroke="#0C2626" stroke-width="0.416243" stroke-miterlimit="10" stroke-linecap="round"/>
<path d="M80.6825 100.765C80.6825 100.765 81.2377 90.9983 79.2944 84.5878C77.3511 78.1774 74.5497 75.9312 74.5497 74.4926C74.4553 72.9937 74.2699 71.5019 73.9944 70.0255" stroke="#0C2626" stroke-width="0.416243" stroke-miterlimit="10" stroke-linecap="round"/>
<path d="M61.7161 76.499C59.4872 78.506 57.9279 81.1489 57.249 84.0704C56.4161 88.5249 55.5833 93.8249 55.5833 93.8249L64.2273 111.126C64.9799 108.113 66.1032 105.205 67.5714 102.469C68.2985 101.119 69.2404 99.8953 70.3602 98.8473" stroke="#0C2626" stroke-width="0.416243" stroke-miterlimit="10" stroke-linecap="round"/>
<path d="M82.6385 96.0206C83.2487 95.8678 83.8834 95.8382 84.5052 95.9335C85.1271 96.0288 85.7237 96.2472 86.2601 96.5759C88.4937 97.699 92.9608 103.554 92.9608 103.554C92.9608 103.554 89.8944 89.0423 84.5944 81.5214C79.2944 74.0004 75.6602 74.5431 75.6602 74.5431" stroke="#0C2626" stroke-width="0.416243" stroke-miterlimit="10" stroke-linecap="round"/>
<path d="M54.7378 87.3766L27.9603 97.6737C27.9603 97.6737 18.2058 150.951 14.5715 165.173C10.9372 179.394 4.81697 219.573 4.81697 219.573L12.0603 220.962L14.5841 213.718" stroke="#0C2626" stroke-width="0.392429" stroke-linecap="round" stroke-linejoin="round"/>
<path d="M15.9722 209.554C15.9722 209.554 17.6379 207.03 22.105 193.149C26.5722 179.268 38.5098 145.197 40.5162 138.471C42.5226 131.745 44.1378 127.316 44.1378 127.316" stroke="#0C2626" stroke-width="0.416243" stroke-miterlimit="10" stroke-linecap="round"/>
<path d="M39.3931 119.126C39.3931 119.126 61.9811 159.507 63.9371 161.248C65.893 162.99 63.1042 167.659 62.5364 170.17" stroke="#0C2626" stroke-width="0.416243" stroke-miterlimit="10" stroke-linecap="round"/>
<path d="M60.0378 175.243L52.7945 190.31C52.7945 190.31 57.5392 197.566 77.6161 197.566C89.5641 197.602 101.341 194.726 111.927 189.187C111.927 189.187 107.182 164.088 107.46 159.62C107.738 155.153 108.306 143.443 108.306 143.443C108.306 143.443 113.353 135.871 112.76 130.054C112.167 124.237 109.694 117.498 109.694 116.388C109.694 115.277 109.138 103.277 109.138 103.277" stroke="#0C2626" stroke-width="0.416243" stroke-miterlimit="10" stroke-linecap="round"/>
<path d="M77.5782 150.446L97.5668 138.181" stroke="#0C2626" stroke-width="0.208121" stroke-miterlimit="10" stroke-linecap="round"/>
<path d="M88.1025 146.598L98.9675 140.288" stroke="#0C2626" stroke-width="0.208121" stroke-miterlimit="10" stroke-linecap="round"/>
<path d="M147.917 122.243L143.841 132.225" stroke="#0C2626" stroke-width="0.208121" stroke-miterlimit="10" stroke-linecap="round"/>
<path d="M146.289 126.609L142.44 130.471" stroke="#0C2626" stroke-width="0.208121" stroke-miterlimit="10" stroke-linecap="round"/>
<path d="M32.3517 162.031C32.3517 162.031 25.6888 169.741 21.1334 172.896" stroke="#0C2626" stroke-width="0.208121" stroke-miterlimit="10" stroke-linecap="round"/>
<path d="M28.5029 164.125C28.5029 164.125 16.9312 173.236 14.1298 175.344" stroke="#0C2626" stroke-width="0.208121" stroke-miterlimit="10" stroke-linecap="round"/>
<path d="M30.5598 99.2637C34.0481 104.196 37.2096 109.351 40.024 114.697" stroke="#0C2626" stroke-width="0.208121" stroke-miterlimit="10" stroke-linecap="round"/>
<path d="M41.1219 117.145L43.57 121.347" stroke="#0C2626" stroke-width="0.208121" stroke-miterlimit="10" stroke-linecap="round"/>
<path d="M109.694 116.388L112.76 100.765" stroke="#0C2626" stroke-width="0.208121" stroke-miterlimit="10" stroke-linecap="round"/>
<path d="M110.817 117.498L115.549 110.81" stroke="#0C2626" stroke-width="0.208121" stroke-miterlimit="10" stroke-linecap="round"/>
<path d="M44.1378 127.265L30.749 120.009" stroke="#0C2626" stroke-width="0.208121" stroke-miterlimit="10" stroke-linecap="round"/>
<path d="M80.1273 104.109C80.1273 104.109 85.1749 114.205 86.828 121.41" stroke="#0C2626" stroke-width="0.208121" stroke-miterlimit="10" stroke-linecap="round"/>
<path d="M162.971 86.5311C164.306 86.4327 165.648 86.6055 166.914 87.0393C168.181 87.473 169.346 88.1587 170.341 89.0549" stroke="#0C2626" stroke-width="0.208121" stroke-miterlimit="10" stroke-linecap="round"/>
<path d="M9.66268 212.646L13.1203 213.933" stroke="#0C2626" stroke-width="0.208121" stroke-miterlimit="10" stroke-linecap="round"/>
<path d="M4.72864 220.078C4.77203 224.876 4.51917 229.672 3.9715 234.439C3.13865 240.306 3.41627 253.695 4.52674 257.872C5.63722 262.049 6.20507 262.92 7.31554 260.396C8.42602 257.872 11.7827 243.108 11.7827 243.108C11.7827 243.108 12.3379 252.862 14.8491 252.03C17.3603 251.197 15.9722 246.452 15.9722 242.262C15.9722 238.073 16.2498 236.685 15.9722 233.341C15.6946 229.997 11.972 221.731 11.972 221.731" fill="#ECF1F1"/>
<path d="M4.72864 220.078C4.77203 224.876 4.51917 229.672 3.9715 234.439C3.13865 240.306 3.41627 253.695 4.52674 257.872C5.63722 262.049 6.20507 262.92 7.31554 260.396C8.42602 257.872 11.7827 243.108 11.7827 243.108C11.7827 243.108 12.3379 252.862 14.8491 252.03C17.3603 251.197 15.9722 246.452 15.9722 242.262C15.9722 238.073 16.2498 236.685 15.9722 233.341C15.6946 229.997 11.972 221.731 11.972 221.731" stroke="#0C2626" stroke-width="0.392429" stroke-miterlimit="10" stroke-linecap="round"/>
<path d="M166.227 77.3824C166.1 74.9149 166.1 72.4425 166.227 69.975C166.454 67.6531 165.533 64.1829 165.76 61.1417C165.987 58.1005 169.003 56.9774 168.536 53.0403C168.069 49.1032 167.148 48.6363 167.842 47.7151C168.536 46.7939 172.89 48.1693 173.167 50.7184C173.415 53.3415 173.415 55.9821 173.167 58.6053C172.94 59.2993 174.555 63.6529 173.634 65.5457C173.106 66.5711 172.716 67.6615 172.473 68.7888" stroke="#0C2626" stroke-width="0.345669" stroke-miterlimit="10" stroke-linecap="round"/>
<path d="M174.101 50.5164C174.101 50.5164 179.426 39.866 182.442 39.6262C185.458 39.3865 184.524 42.15 183.591 43.5633C182.657 44.9767 179.653 50.0495 179.426 52.1443C179.199 54.239 176.41 61.1669 176.41 61.1669" stroke="#0C2626" stroke-width="0.345669" stroke-miterlimit="10" stroke-linecap="round"/>
<path d="M179.464 52.1443C179.464 52.1443 187.578 57.0026 185.774 60.9776C183.969 64.9526 182.985 66.5426 181.597 66.0252C180.366 65.3963 179.266 64.54 178.354 63.5014" stroke="#0C2626" stroke-width="0.345669" stroke-miterlimit="10" stroke-linecap="round"/>
<path d="M182.442 66.0378C182.442 66.0378 180.348 69.5081 178.732 71.6028C177.803 72.8126 176.702 73.8798 175.464 74.7702L174.48 78.19" stroke="#0C2626" stroke-width="0.345669" stroke-miterlimit="10" stroke-linecap="round"/>
<path d="M85.1497 82.9094C85.1497 82.9094 104.394 82.6318 106.905 85.6982C109.416 88.7646 139.828 116.665 143.5 119.176C147.172 121.688 147.967 122.243 147.967 122.243C147.967 122.243 163.022 88.1715 163.022 86.531C163.022 84.8906 165.545 77.3318 165.545 77.3318C165.545 77.3318 170.29 77.887 171.413 77.887C172.536 77.887 175.59 81.5213 175.59 81.5213C175.59 81.5213 171.413 98.5317 171.413 100.45C171.413 102.368 163.602 128.906 159.968 137.045C156.334 145.184 151.324 144.011 143.235 141.499C135.146 138.988 113.113 126.445 113.113 126.445" stroke="#0C2626" stroke-width="0.416243" stroke-miterlimit="10" stroke-linecap="round"/>
<path d="M52.7945 190.31C52.7945 190.31 41.6267 218.248 38.6107 237.265C35.5948 256.282 36.8819 300.752 36.0112 305.509C35.1405 310.266 23.0515 332.716 23.0515 343.517C23.0515 354.319 16.5779 410.032 16.5779 410.032L20.8936 412.619C20.8936 412.619 36.0364 365.929 41.6267 353.878C47.2169 341.826 55.0154 313.282 57.1733 307.667C59.3311 302.051 74.4613 257.128 75.3194 251.512C76.1775 245.897 81.3639 232.079 81.3639 232.079C81.3639 232.079 92.5949 300.752 94.7527 315.011C96.9106 329.271 112.028 406.575 112.028 406.575C113.021 406.818 114.035 406.961 115.057 407.004C116.319 407.004 116.786 404.846 116.786 404.846C116.786 404.846 122.83 349.991 121.101 335.302C119.372 320.614 114.199 302.493 114.199 297.294C114.199 292.095 121.972 247.196 121.972 231.675C121.972 216.154 111.877 189.212 111.877 189.212C111.877 189.212 76.0513 207.282 52.7945 190.31Z" fill="#0C2626"/>
<path d="M114.035 300.146C114.035 300.146 110.186 316.626 104.924 325.384" stroke="#ECF1F1" stroke-width="0.208121" stroke-miterlimit="10" stroke-linecap="round"/>
<path d="M112.987 316.98C112.987 316.98 109.832 328.892 103.523 334.507" stroke="#ECF1F1" stroke-width="0.208121" stroke-miterlimit="10" stroke-linecap="round"/>
<path d="M38.3205 311.718C38.3205 311.718 40.7686 326.091 43.57 332.047" stroke="#ECF1F1" stroke-width="0.208121" stroke-miterlimit="10" stroke-linecap="round"/>
<path d="M37.6138 320.134C37.6138 320.134 39.7212 330.305 43.57 336.262" stroke="#ECF1F1" stroke-width="0.208121" stroke-miterlimit="10" stroke-linecap="round"/>
<path d="M82.487 232.142L96.5068 220.57" stroke="#ECF1F1" stroke-width="0.208121" stroke-miterlimit="10" stroke-linecap="round"/>
<path d="M89.1499 227.233L105.63 219.864" stroke="#ECF1F1" stroke-width="0.208121" stroke-miterlimit="10" stroke-linecap="round"/>
<path d="M53.0342 207.598C53.0342 207.598 63.9118 214.602 70.2213 220.57" stroke="#ECF1F1" stroke-width="0.208121" stroke-miterlimit="10" stroke-linecap="round"/>
<path d="M17.0322 409.994C17.0322 409.994 0.627457 423.875 0.627457 430.765C0.627457 437.655 7.10101 437.239 14.0162 430.765C20.9315 424.292 21.2848 410.954 21.2848 410.954L17.0322 409.994Z" fill="#ECF1F1" stroke="#0C2626" stroke-width="0.416243" stroke-miterlimit="10" stroke-linecap="round"/>
<path d="M112.028 406.575C112.028 406.575 117.644 420.393 123.701 426.45C129.758 432.507 133.203 434.652 133.203 428.166C133.203 421.68 129.316 414.348 116.798 404.846C116.786 404.846 120.243 407.433 112.028 406.575Z" fill="#ECF1F1" stroke="#0C2626" stroke-width="0.416243" stroke-miterlimit="10" stroke-linecap="round"/>
<path d="M54.0816 24.1048C52.9585 23.6884 51.8985 23.1836 50.8007 22.7167C49.7028 22.2498 47.6964 21.9974 46.9393 25.4424C45.8162 30.49 53.6273 34.6543 51.1161 38.8312C49.5539 41.3722 47.206 43.3348 44.4281 44.4215C43.9759 44.5769 43.5047 44.6703 43.0274 44.6991C40.7938 44.9767 37.1721 44.6991 38.2826 48.5983C39.3931 52.4976 43.0274 55.8543 45.2609 55.8543H47.4945C47.4945 55.8543 50.0183 63.4257 59.4826 67.5647C68.9468 71.7038 75.3825 71.4766 77.6161 66.1766C79.8497 60.8766 81.528 56.4095 81.528 49.4312C81.528 42.4529 79.0042 30.7424 79.0042 30.7424C79.0042 30.7424 76.7706 33.8215 68.1266 29.9096C62.4102 27.3227 57.0597 25.2279 54.0816 24.1048Z" fill="#ECF1F1"/>
<g style="mix-blend-mode:multiply" opacity="0.5">
<path d="M68.1392 29.9096C68.1392 29.9096 54.8009 29.1651 52.8071 29.4932C50.8133 29.8213 53.1352 35.8027 52.479 41.7841C51.8228 47.7655 52.1383 57.4065 54.8009 60.3972C57.9429 63.4809 61.2723 66.3677 64.7699 69.0412C64.7699 69.0412 54.5359 67.3881 50.8133 63.0598C47.0907 58.7315 46.4976 56.4096 46.4976 56.4096C46.4976 56.4096 37.8536 51.362 37.1848 47.4374C36.516 43.5129 42.2324 45.5951 44.9707 43.6517C46.5102 42.5917 52.8828 40.5979 51.2802 35.2853C49.6776 29.9727 47.0907 28.9758 46.9897 25.4173C46.914 22.8935 49.135 22.1615 50.4978 21.9344C51.1122 21.831 51.7436 21.9237 52.3023 22.1994L68.1392 29.9096Z" fill="#A96EA6"/>
</g>
<path d="M54.0816 24.1048C52.9585 23.6884 51.8985 23.1836 50.8007 22.7167C49.7028 22.2498 47.6964 21.9974 46.9393 25.4424C45.8162 30.49 53.6273 34.6543 51.1162 38.8312C49.5539 41.3722 47.206 43.3348 44.4281 44.4215C43.9759 44.5769 43.5047 44.6703 43.0274 44.6991C40.7938 44.9767 37.1721 44.6991 38.2826 48.5983C39.3931 52.4976 43.0274 55.8543 45.2609 55.8543H47.4945C47.4945 55.8543 50.0183 63.4257 59.4826 67.5647C68.9468 71.7038 75.3825 71.4766 77.6161 66.1766C79.8497 60.8766 81.528 56.4095 81.528 49.4312C81.528 42.4529 79.0042 30.7424 79.0042 30.7424C79.0042 30.7424 76.7706 33.8215 68.1266 29.9096C62.4102 27.3227 57.0597 25.2279 54.0816 24.1048Z" stroke="#0C2626" stroke-width="0.416243" stroke-miterlimit="10" stroke-linecap="round"/>
<path d="M63.9371 40.6358C64.1137 41.6958 63.8235 42.6296 63.2809 42.7179C62.7383 42.8062 62.183 42.0112 62.019 40.9512C61.8549 39.8913 62.1452 38.9448 62.6752 38.8565C63.2052 38.7682 63.7604 39.6263 63.9371 40.6358Z" fill="#0C2626"/>
<path d="M75.4835 38.7051C75.6475 39.7651 75.3573 40.6989 74.8273 40.7872C74.2973 40.8755 73.7294 40.0806 73.5654 39.0206C73.4014 37.9606 73.679 37.0267 74.209 36.9384C74.739 36.8501 75.3068 37.6451 75.4835 38.7051Z" fill="#0C2626"/>
<path d="M57.249 35.4872C57.9551 34.4376 58.9128 33.5816 60.0348 32.9975C61.1569 32.4133 62.4073 32.1196 63.6721 32.1432" stroke="#0C2626" stroke-width="0.416243" stroke-miterlimit="10" stroke-linecap="round"/>
<path d="M72.3161 32.976C73.388 32.6013 74.5485 32.5612 75.6437 32.8609C76.7389 33.1607 77.7172 33.7861 78.449 34.6543" stroke="#0C2626" stroke-width="0.416243" stroke-miterlimit="10" stroke-linecap="round"/>
<path d="M71.2057 37.7208C71.0515 39.4841 71.0515 41.2574 71.2057 43.0207C71.4833 45.2543 73.149 45.8095 72.5937 47.4879C72.0385 49.1662 69.8049 49.1536 69.8049 49.1536" stroke="#0C2626" stroke-width="0.416243" stroke-miterlimit="10" stroke-linecap="round"/>
<path d="M67.0161 55.8543C66.0604 56.08 65.0672 56.0966 64.1045 55.9027C63.1418 55.7089 62.2324 55.3092 61.4385 54.7312" stroke="#0C2626" stroke-width="0.416243" stroke-miterlimit="10" stroke-linecap="round"/>
</svg>
