<svg width="160" height="450" viewBox="0 0 160 450" fill="none" xmlns="http://www.w3.org/2000/svg">
<g filter="url(#filter0_d_7_1304)">
<path d="M74.2187 18.243C74.2187 18.243 107.306 15.0378 109.199 20.5523C111.091 26.0668 110.461 38.6606 110.461 38.6606C112.127 39.0939 113.753 39.6724 115.319 40.3894C115.76 40.8184 120.657 44.0237 116.089 49.2858C114.896 50.6201 113.45 51.7052 111.836 52.4784C109.822 53.3701 107.906 54.4697 106.12 55.7593L99.482 63.2929L100.744 72.9969C100.744 72.9969 103.709 75.1422 107.331 82.6253C107.331 82.6253 115.887 87.6729 120.909 90.5374C125.039 92.7075 129.335 94.5472 133.755 96.0393C133.755 96.0393 136.052 96.7838 135.888 98.4369C135.724 100.09 124.455 137.556 124.455 137.556L118.524 156.484C118.411 158.81 118.108 161.123 117.616 163.4C116.77 167.476 113.59 170.151 110.296 169.318L110.625 183.199C110.625 183.199 95.1536 190.934 69.638 189.622C69.638 189.622 57.6247 188.461 48.7409 181.886L48.5769 149.456L7.64074 141.531C7.64074 141.531 2.45433 140.433 5.11694 135.764C7.77955 131.095 16.7264 119.511 16.7264 119.511L45.4852 84.3288C45.4852 84.3288 47.4664 81.9943 48.1983 81.2498C48.9302 80.5052 50.7221 79.9879 57.8266 79.3948C64.9311 78.8017 72.8937 77.4262 72.8937 77.4262C72.8937 77.4262 77.2094 73.7162 77.8277 73.7162C78.446 73.7162 78.5723 68.1638 78.5723 68.1638C76.3897 66.589 74.5748 64.5595 73.2524 62.2154C71.93 59.8713 71.1317 57.2682 70.9125 54.5858C70.2942 45.5758 74.2439 24.4642 74.2439 24.4642L74.2187 18.243Z" fill="#ECF1F1"/>
<path d="M49.2456 181.76C49.2456 181.76 45.7628 233.498 45.7628 258.257C45.7628 283.015 47.3149 303.067 48.0847 320.456C48.8544 337.845 45.7628 349.82 48.4632 362.566C51.1637 375.311 57.3597 412.411 57.3597 412.411L64.6409 416.802C64.6409 416.802 65.9027 387.286 68.5527 376.863C71.2027 366.44 72.0356 322.387 73.6003 308.859C75.1651 295.331 80.1749 247.43 80.1749 247.43C80.1749 247.43 99.4946 297.653 104.151 317.364C108.807 337.075 124.632 381.494 128.127 392.309C131.623 403.123 137.011 419.149 137.011 419.149C138.648 419.628 140.368 419.757 142.059 419.528C142.789 419.469 143.492 419.225 144.101 418.819C144.711 418.413 145.206 417.857 145.541 417.206C145.541 417.206 140.405 384.851 138.147 369.127C135.358 349.682 130.815 320.456 128.051 309.641C125.288 298.827 121.098 281.816 121.098 273.702C121.098 265.588 110.675 184.107 110.675 184.107C110.675 184.107 74.3575 199.919 49.2456 181.76Z" fill="#0C2626"/>
<path d="M80.1496 247.43L64.6534 229.359" stroke="#ECF1F1" stroke-width="0.208121" stroke-miterlimit="10" stroke-linecap="round"/>
<path d="M60.6912 230.684L73.449 242.559" stroke="#ECF1F1" stroke-width="0.208121" stroke-miterlimit="10" stroke-linecap="round"/>
<path d="M87.9608 232.009C91.2277 223.744 97.2985 216.891 105.11 212.652" stroke="#ECF1F1" stroke-width="0.208121" stroke-miterlimit="10" stroke-linecap="round"/>
<path d="M105.981 188.474C105.981 188.474 104.227 195.061 106.423 199.023C108.618 202.985 110.827 202.986 110.827 202.986C110.827 202.986 114.776 224.526 114.776 236.842C114.776 249.158 112.139 250.471 114.776 264.099C117.414 277.728 119.18 282.132 119.18 290.044C119.18 297.956 122.688 303.244 125.767 308.077C128.847 312.91 129.73 327.005 129.73 332.696C129.73 338.388 131.484 344.571 133.251 350.287C133.251 350.287 133.667 363.108 135.888 366.112C138.109 369.115 138.525 379.311 138.525 379.311" stroke="#ECF1F1" stroke-width="0.208121" stroke-miterlimit="10" stroke-linecap="round"/>
<path d="M76.9696 245.638C76.9696 245.638 77.8404 255.733 74.7613 273.336C71.6823 290.94 69.4866 295.76 69.0449 315.989C68.6033 336.217 70.3699 339.738 69.4866 350.287C68.6032 360.837 63.3285 377.506 63.3285 385.078C63.3285 392.649 64.1361 416.853 64.1361 416.853" stroke="#ECF1F1" stroke-width="0.208121" stroke-miterlimit="10" stroke-linecap="round"/>
<path d="M67.2908 191.111L68.1742 194.632L73.8906 195.944L73.0073 191.553" stroke="#ECF1F1" stroke-width="0.208121" stroke-miterlimit="10" stroke-linecap="round"/>
<path d="M73.9158 195.944C73.9158 195.944 84.4653 195.502 89.7401 193.748L88.4782 190.228" stroke="#ECF1F1" stroke-width="0.208121" stroke-miterlimit="10" stroke-linecap="round"/>
<path d="M93.2356 189.344L94.4975 193.748C94.4975 193.748 102.94 193.269 104.202 192.007" stroke="#ECF1F1" stroke-width="0.208121" stroke-miterlimit="10" stroke-linecap="round"/>
<path d="M68.1742 194.632C65.258 194.54 62.401 193.785 59.8204 192.423L55.858 190.228L57.1199 187.149" stroke="#ECF1F1" stroke-width="0.208121" stroke-miterlimit="10" stroke-linecap="round"/>
<path d="M57.3597 412.411C57.3597 412.411 38.4312 424.765 35.7181 430.557C33.005 436.349 43.8321 434.04 51.555 430.948C59.2778 427.856 64.174 416.802 64.174 416.802L57.3597 412.411Z" fill="#ECF1F1" stroke="#0C2626" stroke-width="0.416243" stroke-miterlimit="10" stroke-linecap="round"/>
<path d="M137.617 419.313C138.571 424.606 140.451 429.689 143.169 434.33C147.333 440.804 155.195 446.356 155.195 436.172C155.195 425.989 145.491 417.244 145.491 417.244C145.491 417.244 140.67 419.856 137.617 419.313Z" fill="#ECF1F1" stroke="#0C2626" stroke-width="0.416243" stroke-miterlimit="10" stroke-linecap="round"/>
<path d="M74.1051 25.2339C74.1051 25.2339 70.0039 50.6738 71.392 56.9833C74.5594 71.104 85.6767 70.4983 92.6298 67.7979C99.1286 65.2741 105.615 56.3524 106.448 55.1788C106.507 55.096 106.591 55.0341 106.687 55.0021C107.722 54.7119 114.145 52.6676 116.972 47.7084C120.064 42.2948 114.271 39.9855 114.271 39.9855" fill="#ECF1F1"/>
<g style="mix-blend-mode:multiply" opacity="0.5">
<path d="M100.416 61.7281L106.549 54.9896C106.549 54.9896 113.805 52.756 116.972 47.6453C118.827 44.6546 117.805 42.0425 116.682 41.3358C115.143 40.5027 113.554 39.7652 111.924 39.1275L109.867 43.6577L108.113 43.9605C108.113 43.9605 108.845 39.2915 106.725 36.5279C104.605 33.7644 104.126 25.7639 104.126 25.7639C104.126 25.7639 101.16 41.7144 100.794 48.3898C100.7 52.1049 99.5394 55.7144 97.4504 58.7879C97.4504 58.7879 97.829 62.8638 98.5609 66.9398C98.6492 67.4193 98.7375 68.1386 98.8258 69.0345L99.8353 67.4193L100.391 68.9588C99.7596 66.3088 99.4694 63.4948 100.416 61.7281Z" fill="#A96EA6"/>
</g>
<path d="M74.1051 25.2339C74.1051 25.2339 70.0039 50.6738 71.392 56.9833C74.5594 71.104 85.6767 70.4983 92.6298 67.7979C99.1286 65.2741 105.615 56.3524 106.448 55.1788C106.507 55.096 106.591 55.0341 106.687 55.0021C107.722 54.7119 114.145 52.6676 116.972 47.7084C120.064 42.2948 114.271 39.9855 114.271 39.9855" stroke="#0C2626" stroke-width="0.416243" stroke-miterlimit="10" stroke-linecap="round"/>
<path d="M89.8032 38.1684C89.5635 39.1779 89.8032 40.0865 90.2701 40.2C90.737 40.3136 91.368 39.607 91.6077 38.6101C91.8475 37.6132 91.6077 36.7046 91.1408 36.5784C90.6739 36.4522 90.043 37.1715 89.8032 38.1684Z" fill="#0C2626"/>
<path d="M78.9635 35.531C78.7237 36.5406 78.9635 37.4491 79.4304 37.5627C79.8973 37.6763 80.5283 36.9696 80.768 35.9727C81.0078 34.9758 80.768 34.0546 80.3011 33.941C79.8342 33.8275 79.1906 34.5215 78.9635 35.531Z" fill="#0C2626"/>
<path d="M96.5291 33.7518C95.933 32.7026 95.0838 31.8192 94.0589 31.1822C93.034 30.5452 91.866 30.1749 90.6613 30.1049" stroke="#0C2626" stroke-width="0.416243" stroke-miterlimit="10" stroke-linecap="round"/>
<path d="M82.358 30.2941C81.3647 29.86 80.2628 29.7385 79.1988 29.9459C78.1348 30.1533 77.1592 30.6797 76.4017 31.4551" stroke="#0C2626" stroke-width="0.416243" stroke-miterlimit="10" stroke-linecap="round"/>
<path d="M83.0898 34.8875C83.1136 36.5779 82.9868 38.2671 82.7112 39.9351C82.2948 42.0424 80.6543 42.4589 81.0708 44.0867C81.4872 45.7146 83.5946 45.8786 83.5946 45.8786" stroke="#0C2626" stroke-width="0.416243" stroke-miterlimit="10" stroke-linecap="round"/>
<path d="M85.7903 52.4532C86.6834 52.7377 87.6277 52.8252 88.5579 52.7097C89.4881 52.5943 90.3822 52.2786 91.1787 51.7844" stroke="#0C2626" stroke-width="0.416243" stroke-miterlimit="10" stroke-linecap="round"/>
<path d="M105.779 7.46633C105.779 7.46633 97.2863 0.12207 89.1723 0.12207C81.0582 0.12207 74.4837 4.76587 69.4613 5.16968C64.4389 5.57349 60.9687 0.917067 57.8771 7.10039C54.7854 13.2837 66.3823 23.7196 74.1052 25.2592C81.828 26.7987 92.6424 24.4894 95.7341 24.0982C98.6961 23.8952 101.669 23.8952 104.631 24.0982C104.631 24.0982 102.309 31.4425 104.631 33.7644C106.952 36.0863 107.331 37.6258 107.331 39.1653C107.464 40.8645 107.721 42.5515 108.101 44.2129L110.423 44.9953L111.584 40.7427C114.716 37.4022 116.857 33.2556 117.767 28.7672C118.915 21.8142 113.123 14.8863 113.123 14.8863L105.779 7.46633Z" fill="#0C2626"/>
<path d="M73.247 22.0918C73.247 22.0918 86.4591 24.6156 96.8067 20.3125C107.154 16.0095 98.2327 7.46637 98.2327 7.46637" stroke="#ECF1F1" stroke-width="0.208121" stroke-miterlimit="10" stroke-linecap="round"/>
<path d="M100.416 6.74707C101.488 6.74707 110.41 13.5235 108.618 18.5206C106.826 23.5177 103.268 23.8837 103.268 23.8837" stroke="#ECF1F1" stroke-width="0.208121" stroke-miterlimit="10" stroke-linecap="round"/>
<path d="M98.952 160.03L87.7968 154.15C84.9297 153.991 82.0784 153.62 79.2663 153.039C76.6668 152.295 49.9902 149.746 49.9902 149.746L49.5864 156.055C49.5864 156.055 80.0109 160.144 86.3078 160.888C92.6046 161.633 98.1822 164.598 99.2927 166.453C100.403 168.308 102.637 170.163 101.526 175.287C100.416 180.41 92.9958 187.906 92.9958 187.906C92.6425 187.376 110.839 186.063 110.662 184.12C110.271 180.259 108.214 168.977 108.214 168.977L98.952 160.03Z" fill="#A96EA6"/>
<path opacity="0.5" d="M98.952 160.03L87.7968 154.15C84.9298 153.991 82.0784 153.62 79.2663 153.039C76.6668 152.295 49.9902 149.746 49.9902 149.746L49.5864 156.055C49.5864 156.055 80.0109 160.144 86.3078 160.888C92.6046 161.633 98.1822 164.598 99.2927 166.453C100.403 168.308 102.637 170.163 101.526 175.287C100.416 180.41 92.9958 187.906 92.9958 187.906C92.7056 187.338 110.877 186.051 110.662 184.12C110.069 179.199 108.214 168.977 108.214 168.977L98.952 160.03Z" fill="#ECF1F1"/>
<path d="M135.749 98.298C134.765 93.6795 127.421 94.2978 122.991 91.7361C118.562 89.1745 107.848 83.2435 107.848 83.2435L102.662 75.445C101.726 73.3424 100.97 71.1641 100.403 68.9336L99.8479 67.394L98.8384 69.0093C99.482 75.9245 100.1 93.629 100.1 93.629L102.321 104.759C102.321 104.759 110.864 141.48 113.085 149.645C115.306 157.809 115.306 163.362 113.83 165.961C112.353 168.561 112.846 169.747 112.846 169.747C112.846 169.747 118.638 165.267 118.284 160.825C117.817 155.601 136.443 101.428 135.749 98.298Z" fill="#A96EA6"/>
<path opacity="0.5" d="M135.749 98.298C135.244 93.6038 127.421 94.2978 122.991 91.7361C118.562 89.1745 107.848 83.2435 107.848 83.2435L102.662 75.445C101.726 73.3424 100.97 71.1641 100.403 68.9336L99.8479 67.394L98.8384 69.0093C99.482 75.9245 100.1 93.629 100.1 93.629L102.321 104.759C102.321 104.759 110.864 141.48 113.085 149.645C115.306 157.809 115.306 163.362 113.83 165.961C112.353 168.561 112.846 169.747 112.846 169.747C112.846 169.747 118.802 165.255 118.284 160.825C117.691 156.068 136.203 102.197 135.749 98.298Z" fill="#ECF1F1"/>
<path d="M103.331 93.6669C103.331 93.6669 101.009 72.8076 99.848 67.3941C98.687 61.9805 99.4694 58.9015 94.4471 58.9015C89.4247 58.9015 83.2414 58.1191 84.3518 60.8322C85.4623 63.5453 93.1852 61.2108 94.4471 62.3717C95.709 63.5327 94.8256 66.2331 94.8256 66.2331C94.8256 66.2331 84.7304 67.0155 84.7304 69.716C84.7304 72.4165 85.1215 79.8112 87.0523 80.5305C88.983 81.2498 89.7527 77.0603 89.7527 77.0603C89.7527 77.0603 90.144 85.8936 92.0747 89.0357C93.3044 90.9763 94.7293 92.786 96.3273 94.4366L103.331 93.6669Z" fill="#ECF1F1" stroke="#0C2626" stroke-width="0.416243" stroke-miterlimit="10" stroke-linecap="round"/>
<path d="M96.3777 99.459C96.3777 99.459 95.2167 147.411 97.1474 155.096C99.0781 162.781 109.514 173.255 114.915 168.233C120.316 163.21 117.628 152.396 117.628 147.373C117.628 142.351 105.261 105.264 105.261 102.551C105.078 100.298 104.554 98.0854 103.709 95.9888" stroke="#0C2626" stroke-width="0.416243" stroke-miterlimit="10" stroke-linecap="round"/>
<path d="M97.1475 105.264L104.87 104.481" stroke="#0C2626" stroke-width="0.416243" stroke-miterlimit="10" stroke-linecap="round"/>
<path d="M47.7566 129.24L49.2457 86.575C49.2457 86.575 47.3907 85.4645 46.6462 89.5404C45.9016 93.6164 45.5357 101.794 45.5357 101.794C45.5357 101.794 36.6266 96.2285 38.8602 99.56C41.0938 102.891 44.7912 110.324 44.7912 110.324L31.0112 124.041L37.3207 126.64L47.7566 129.24Z" fill="#A96EA6"/>
<path opacity="0.5" d="M47.7566 129.24L49.2457 86.575C49.2457 86.575 47.3907 85.4645 46.6462 89.5404C45.9016 93.6164 45.5357 101.794 45.5357 101.794C45.5357 101.794 36.6266 96.2285 38.8602 99.56C41.0938 102.891 44.7912 110.324 44.7912 110.324L31.0112 124.041L37.3207 126.64L47.7566 129.24Z" fill="#ECF1F1"/>
<path d="M66.2308 96.1023C66.2308 96.1023 65.5242 98.6261 68.4897 98.6261C71.4551 98.6261 76.6668 96.5187 76.6668 96.5187L76.2882 92.3292C76.2882 92.3292 69.1584 95.7995 66.2308 96.1023Z" fill="#A96EA6"/>
<path opacity="0.5" d="M66.2308 96.1023C66.2308 96.1023 65.5242 98.6261 68.4897 98.6261C71.4551 98.6261 76.6668 96.5187 76.6668 96.5187L76.2882 92.3292C76.2882 92.3292 69.1584 95.7995 66.2308 96.1023Z" fill="#ECF1F1"/>
<path d="M78.9635 67.8862C78.9635 67.8862 75.1021 90.6005 77.424 95.6481C79.7459 100.696 83.2161 99.5095 85.9166 97.2002C88.6171 94.8909 92.0999 89.0862 92.0999 89.0862" stroke="#0C2626" stroke-width="0.416243" stroke-miterlimit="10" stroke-linecap="round"/>
<path d="M48.4633 150.074L49.2457 181.76C49.2457 181.76 58.079 190.253 75.1273 190.253C92.1756 190.253 110.675 184.069 110.675 184.069V172.864" stroke="#0C2626" stroke-width="0.416243" stroke-miterlimit="10" stroke-linecap="round"/>
<path d="M100.63 72.4164C100.63 72.4164 107.583 79.3695 107.583 85.944C107.583 92.5185 106.422 94.058 106.422 94.058" stroke="#0C2626" stroke-width="0.416243" stroke-miterlimit="10" stroke-linecap="round"/>
<path d="M106.801 82.0826C106.801 82.0826 117.237 88.2533 123.029 91.7362C128.821 95.219 135.787 95.2064 135.787 98.2981C135.787 101.39 119.559 153.935 119.559 153.935" stroke="#0C2626" stroke-width="0.416243" stroke-miterlimit="10" stroke-linecap="round"/>
<path d="M113.376 99.459L109.514 114.917" stroke="#0C2626" stroke-width="0.416243" stroke-miterlimit="10" stroke-linecap="round"/>
<path d="M48.5643 108.532L42.3178 95.4335" stroke="#0C2626" stroke-width="0.208121" stroke-miterlimit="10" stroke-linecap="round"/>
<path d="M48.5643 112.28L39.2009 106.664" stroke="#0C2626" stroke-width="0.208121" stroke-miterlimit="10" stroke-linecap="round"/>
<path d="M79.1149 141.581L77.2473 150.945" stroke="#0C2626" stroke-width="0.208121" stroke-miterlimit="10" stroke-linecap="round"/>
<path d="M129.629 97.9321C129.629 97.9321 120.278 99.7997 111.546 110.4" stroke="#0C2626" stroke-width="0.208121" stroke-miterlimit="10" stroke-linecap="round"/>
<path d="M123.395 97.3643C123.395 97.3643 120.871 96.7333 112.177 104.216" stroke="#0C2626" stroke-width="0.208121" stroke-miterlimit="10" stroke-linecap="round"/>
<path d="M79.1149 100.431L75.3796 129.732L78.4965 130.363L80.9951 121.012" stroke="#0C2626" stroke-width="0.208121" stroke-miterlimit="10" stroke-linecap="round"/>
<path d="M81.6134 177.129C70.3825 186.492 54.798 185.861 54.798 185.861" stroke="#0C2626" stroke-width="0.208121" stroke-miterlimit="10" stroke-linecap="round"/>
<path d="M34.1533 126.237C34.1533 126.237 26.5188 119.246 15.7043 128.142" stroke="#0C2626" stroke-width="0.208121" stroke-miterlimit="10" stroke-linecap="round"/>
<path d="M78.2189 73.5774C78.2189 73.5774 75.1273 74.3472 71.6444 79.7607C68.1616 85.1743 63.9216 94.4366 67.0133 95.2064C70.1049 95.9762 75.8466 92.5059 75.8466 92.5059" stroke="#0C2626" stroke-width="0.416243" stroke-miterlimit="10" stroke-linecap="round"/>
<path d="M90.1945 94.058L94.0559 97.5283" stroke="#0C2626" stroke-width="0.416243" stroke-miterlimit="10" stroke-linecap="round"/>
<path d="M72.8054 77.4388C72.8054 77.4388 58.508 79.3695 52.7159 79.7607C46.9238 80.1519 48.0469 82.2845 46.154 83.6222C43.1002 85.7548 8.06981 130.161 5.77315 134.414C3.47649 138.666 3.84244 140.597 7.70386 141.758C11.5653 142.919 50.0281 149.683 50.0281 149.683L84.0111 153.166L86.7116 144.66C86.7116 144.66 94.611 145.708 95.9991 145.708" stroke="#0C2626" stroke-width="0.416243" stroke-miterlimit="10" stroke-linecap="round"/>
<path d="M82.8501 141.531C75.3499 139.355 68.1001 136.394 61.2211 132.698" stroke="#0C2626" stroke-width="0.416243" stroke-miterlimit="10" stroke-linecap="round"/>
<path d="M58.1294 131.915C58.1294 131.915 46.7723 127.7 40.6269 126.931C34.4814 126.161 25.0676 125.908 25.0676 125.908" stroke="#0C2626" stroke-width="0.416243" stroke-miterlimit="10" stroke-linecap="round"/>
<path d="M47.6935 126.893L48.8545 96.3674" stroke="#0C2626" stroke-width="0.416243" stroke-miterlimit="10" stroke-linecap="round"/>
<path d="M84.0111 153.166C86.6621 154.498 89.4394 155.564 92.3018 156.346" stroke="#0C2626" stroke-width="0.416243" stroke-miterlimit="10" stroke-linecap="round"/>
</g>
<defs>
<filter id="filter0_d_7_1304" x="0.140106" y="0.12207" width="159.263" height="449.873" filterUnits="userSpaceOnUse" color-interpolation-filters="sRGB">
<feFlood flood-opacity="0" result="BackgroundImageFix"/>
<feColorMatrix in="SourceAlpha" type="matrix" values="0 0 0 0 0 0 0 0 0 0 0 0 0 0 0 0 0 0 127 0" result="hardAlpha"/>
<feOffset dy="4"/>
<feGaussianBlur stdDeviation="2"/>
<feComposite in2="hardAlpha" operator="out"/>
<feColorMatrix type="matrix" values="0 0 0 0 0 0 0 0 0 0 0 0 0 0 0 0 0 0 0.25 0"/>
<feBlend mode="normal" in2="BackgroundImageFix" result="effect1_dropShadow_7_1304"/>
<feBlend mode="normal" in="SourceGraphic" in2="effect1_dropShadow_7_1304" result="shape"/>
</filter>
</defs>
</svg>
