<svg width="173" height="131" viewBox="0 0 173 131" fill="none" xmlns="http://www.w3.org/2000/svg">
<path d="M0.675323 130.768H172.004" stroke="#0C2626" stroke-width="0.416243" stroke-miterlimit="10"/>
<path d="M0.675323 130.768V127.122" stroke="#0C2626" stroke-width="0.416243" stroke-miterlimit="10"/>
<path d="M34.936 130.768V127.122" stroke="#0C2626" stroke-width="0.416243" stroke-miterlimit="10"/>
<path d="M69.2092 130.768V127.122" stroke="#0C2626" stroke-width="0.416243" stroke-miterlimit="10"/>
<path d="M103.47 130.768V127.122" stroke="#0C2626" stroke-width="0.416243" stroke-miterlimit="10"/>
<path d="M137.73 130.768V127.122" stroke="#0C2626" stroke-width="0.416243" stroke-miterlimit="10"/>
<path d="M172.004 130.768V127.122" stroke="#0C2626" stroke-width="0.416243" stroke-miterlimit="10"/>
<path d="M30.1407 82.0716H5.47052V111.285H30.1407V82.0716Z" fill="#A96EA6" stroke="#0C2626" stroke-width="0.416243" stroke-miterlimit="10"/>
<path d="M64.4014 47.9877H39.7312V116.156H64.4014V47.9877Z" fill="#A96EA6" stroke="#0C2626" stroke-width="0.416243" stroke-miterlimit="10"/>
<path d="M98.6747 0.275085H74.0045V76.2416H98.6747V0.275085Z" fill="#A96EA6" stroke="#0C2626" stroke-width="0.416243" stroke-miterlimit="10"/>
<path d="M132.935 71.3707H108.265V85.9835H132.935V71.3707Z" fill="#A96EA6" stroke="#0C2626" stroke-width="0.416243" stroke-miterlimit="10"/>
<path d="M167.196 62.6004H142.526V100.584H167.196V62.6004Z" fill="#A96EA6" stroke="#0C2626" stroke-width="0.416243" stroke-miterlimit="10"/>
<path d="M30.1407 111.297H5.47052V130.781H30.1407V111.297Z" fill="#0C2626" stroke="#0C2626" stroke-width="0.416243" stroke-miterlimit="10"/>
<path d="M64.4014 116.168H39.7312V130.781H64.4014V116.168Z" fill="#0C2626" stroke="#0C2626" stroke-width="0.416243" stroke-miterlimit="10"/>
<path d="M98.6747 76.2289H74.0045V130.768H98.6747V76.2289Z" fill="#0C2626" stroke="#0C2626" stroke-width="0.416243" stroke-miterlimit="10"/>
<path d="M132.935 85.9708H108.265V130.768H132.935V85.9708Z" fill="#0C2626" stroke="#0C2626" stroke-width="0.416243" stroke-miterlimit="10"/>
<path d="M167.196 100.584H142.526V130.768H167.196V100.584Z" fill="#0C2626" stroke="#0C2626" stroke-width="0.416243" stroke-miterlimit="10"/>
</svg>
